<svg width="16" height="16" viewBox="0 0 16 16" fill="none" xmlns="http://www.w3.org/2000/svg">
<path fill-rule="evenodd" clip-rule="evenodd" d="M5.31432 4.53438C5.31122 4.25825 5.53254 4.03189 5.80867 4.02879L11.5298 3.96451C11.6644 3.963 11.7938 4.01578 11.889 4.11092C11.9841 4.20607 12.0369 4.33555 12.0354 4.4701L11.9711 10.1912C11.968 10.4674 11.7416 10.6887 11.4655 10.6856C11.1894 10.6825 10.9681 10.4561 10.9712 10.18L11.0217 5.68533L4.81791 11.8891C4.62265 12.0844 4.30606 12.0844 4.1108 11.8891C3.91554 11.6938 3.91554 11.3773 4.1108 11.182L10.3146 4.97823L5.8199 5.02873C5.54378 5.03183 5.31742 4.8105 5.31432 4.53438Z" fill="#707889"/>
</svg>
