<svg width="50" height="50" viewBox="0 0 50 50" fill="none" xmlns="http://www.w3.org/2000/svg">
<g clip-path="url(#clip0_8381_6409)">
<path d="M44.5289 13.9277H4.24504C3.28789 13.9277 2.51196 14.7037 2.51196 15.6608V44.908C2.51196 45.8652 3.28789 46.6411 4.24504 46.6411H44.5289C45.486 46.6411 46.262 45.8652 46.262 44.908V15.6608C46.262 14.7037 45.486 13.9277 44.5289 13.9277Z" fill="#4989F5"/>
<path d="M44.023 13.6821H4.70202C3.48397 13.6821 2.53613 23.1088 2.53613 24.3269L24.0695 46.6412H44.023C44.6099 46.6396 45.1723 46.4058 45.5873 45.9908C46.0023 45.5758 46.2361 45.0134 46.2377 44.4265V15.8964C46.236 15.3096 46.0021 14.7473 45.5871 14.3324C45.1721 13.9175 44.6098 13.6837 44.023 13.6821Z" fill="url(#paint0_linear_8381_6409)"/>
<path d="M12.5015 19.406H25.0015V3H14.3732L12.5015 19.406Z" fill="#3C4BA6"/>
<path d="M37.5015 19.406H25.0015V3H35.6298L37.5015 19.406Z" fill="#7BABF7"/>
<path d="M46.262 6.11035L46.2775 6.16627C46.2737 6.14654 46.2662 6.12821 46.262 6.11035Z" fill="#7BABF7"/>
<path d="M46.2774 6.16588L46.2619 6.10996C46.0696 5.22915 45.5819 4.44055 44.8799 3.87491C44.1778 3.30926 43.3035 3.00057 42.402 3H35.6299L37.5002 19.4065H50.0002L46.2774 6.16588Z" fill="#3F51B5"/>
<path d="M3.74109 6.11035L3.72559 6.16627C3.72935 6.14654 3.73686 6.12821 3.74109 6.11035Z" fill="#7BABF7"/>
<path d="M3.72509 6.16588L3.7406 6.10996C3.93296 5.22915 4.42059 4.44055 5.12265 3.87491C5.8247 3.30926 6.69899 3.00057 7.60056 3H14.3731L12.5 19.4065H0L3.72509 6.16588Z" fill="#7BABF7"/>
<path fill-rule="evenodd" clip-rule="evenodd" d="M12.5222 19.4019C12.5222 21.0585 11.8641 22.6473 10.6927 23.8188C9.52126 24.9902 7.93244 25.6483 6.27577 25.6483C4.6191 25.6483 3.03029 24.9902 1.85885 23.8188C0.687406 22.6473 0.0292969 21.0585 0.0292969 19.4019H12.5222Z" fill="#709BE0"/>
<path fill-rule="evenodd" clip-rule="evenodd" d="M25.0157 19.4019C25.0157 21.0585 24.3575 22.6473 23.1861 23.8188C22.0147 24.9902 20.4259 25.6483 18.7692 25.6483C17.1125 25.6483 15.5237 24.9902 14.3523 23.8188C13.1808 22.6473 12.5227 21.0585 12.5227 19.4019H25.0157Z" fill="#3C4BA6"/>
<path fill-rule="evenodd" clip-rule="evenodd" d="M37.5083 19.4019C37.5083 21.0585 36.8502 22.6473 35.6788 23.8188C34.5073 24.9902 32.9185 25.6483 31.2619 25.6483C29.6052 25.6483 28.0164 24.9902 26.8449 23.8188C25.6735 22.6473 25.0154 21.0585 25.0154 19.4019H37.5083Z" fill="#709BE0"/>
<path fill-rule="evenodd" clip-rule="evenodd" d="M50.0003 19.4019C50.0003 21.0585 49.3422 22.6473 48.1707 23.8188C46.9993 24.9902 45.4105 25.6483 43.7538 25.6483C42.0971 25.6483 40.5083 24.9902 39.3369 23.8188C38.1654 22.6473 37.5073 21.0585 37.5073 19.4019H50.0003Z" fill="#3C4BA6"/>
<path d="M43.7537 36.325C43.7316 36.0276 43.695 35.756 43.6428 35.4092H36.8289C36.8289 36.3622 36.8289 37.4021 36.8251 38.3556H40.7725C40.6886 38.8 40.5178 39.2234 40.2698 39.6015C40.0219 39.9796 39.7016 40.3051 39.3275 40.5591C39.3275 40.5591 39.3275 40.5426 39.3247 40.5422C38.8415 40.8594 38.2972 41.0718 37.7269 41.1657C37.1551 41.2703 36.5689 41.2678 35.9981 41.1582C35.4184 41.0383 34.8696 40.8004 34.3858 40.4594C33.6715 39.953 33.1207 39.2491 32.8007 38.4341C32.7763 38.3706 32.7537 38.3067 32.7307 38.2419V38.2348L32.7368 38.2301C32.4262 37.3186 32.4254 36.3301 32.7344 35.4181C32.9521 34.7783 33.3103 34.1954 33.7828 33.7123C34.3265 33.1499 35.0146 32.7481 35.7716 32.551C36.5286 32.3538 37.3253 32.369 38.0742 32.5948C38.6596 32.7743 39.1946 33.0892 39.6357 33.514L40.9675 32.1822C41.2025 31.9449 41.4464 31.7151 41.6724 31.4698C40.9971 30.8399 40.2045 30.3491 39.3397 30.0252C37.7658 29.4546 36.0441 29.4395 34.4605 29.9825C34.4053 30.0013 34.3505 30.0209 34.296 30.0412C32.5875 30.6835 31.182 31.9431 30.3571 33.5713C30.0658 34.1476 29.8537 34.7606 29.7264 35.3937C29.363 37.1999 29.701 39.0768 30.6717 40.6427C31.6425 42.2087 33.1731 43.3462 34.9525 43.8241C36.1597 44.1474 37.4431 44.1394 38.6597 43.8631C39.7651 43.6135 40.7872 43.0824 41.6268 42.3213C42.5028 41.5154 43.1306 40.4416 43.4595 39.3011C43.7346 38.3346 43.8342 37.3267 43.7537 36.325Z" fill="white"/>
</g>
<defs>
<linearGradient id="paint0_linear_8381_6409" x1="2.53613" y1="30.1615" x2="46.2373" y2="30.1615" gradientUnits="userSpaceOnUse">
<stop offset="0.03" stop-color="#4079D8"/>
<stop offset="1" stop-color="#4989F5"/>
</linearGradient>
<clipPath id="clip0_8381_6409">
<rect width="50" height="50" fill="white"/>
</clipPath>
</defs>
</svg>
