<svg width="46" height="46" viewBox="0 0 46 46" fill="none" xmlns="http://www.w3.org/2000/svg">
<mask id="mask0_8490_21978" style="mask-type:alpha" maskUnits="userSpaceOnUse" x="0" y="0" width="46" height="46">
<path d="M13.6965 0.83162C11.3321 0.94322 9.7171 1.32195 8.30589 1.87492C6.84501 2.44443 5.60663 3.20767 4.37471 4.44464C3.14134 5.68233 2.3839 6.9229 1.81871 8.38525C1.27151 9.80007 0.900697 11.4158 0.796284 13.7817C0.692617 16.152 0.668844 16.908 0.680399 22.9424C0.69191 28.9761 0.718542 29.7336 0.831573 32.1046C0.944599 34.4684 1.32191 36.0826 1.87488 37.4946C2.44511 38.9555 3.20757 40.1932 4.44524 41.4258C5.68222 42.6585 6.9235 43.4152 8.38653 43.9812C9.7999 44.5276 11.4163 44.8999 13.7815 45.0036C16.1518 45.108 16.9085 45.131 22.9414 45.1195C28.9771 45.108 29.7339 45.0813 32.1041 44.969C34.4686 44.856 36.0821 44.4772 37.4948 43.9257C38.9556 43.354 40.194 42.593 41.4259 41.3553C42.6579 40.1183 43.4153 38.877 43.9805 37.4139C44.5277 36.0005 44.9 34.3841 45.0029 32.0203C45.1066 29.6486 45.1311 28.8912 45.1196 22.8575C45.108 16.8231 45.0807 16.067 44.9684 13.6975C44.8561 11.3315 44.4773 9.718 43.9251 8.30534C43.3541 6.84444 42.5924 5.60745 41.3554 4.37408C40.1184 3.14214 38.8772 2.38324 37.4141 1.81948C36 1.27227 34.3844 0.899296 32.0191 0.797056C29.6489 0.691936 28.8922 0.668909 22.8571 0.680424C16.8235 0.69194 16.0668 0.717869 13.6965 0.83162ZM13.9558 41.0039C11.7893 40.9096 10.6128 40.5496 9.82873 40.2479C8.79047 39.8461 8.0496 39.3644 7.26983 38.5904C6.49151 37.8135 6.00838 37.0748 5.60303 36.0387C5.29844 35.2546 4.93198 34.0796 4.83047 31.913C4.7203 29.5708 4.69511 28.8681 4.6843 22.9345C4.67279 17.0023 4.69436 16.2996 4.79663 13.9553C4.88948 11.7902 5.25168 10.6123 5.55262 9.82887C5.95436 8.78917 6.4346 8.04972 7.21006 7.26996C7.98693 6.49018 8.72565 6.00849 9.76245 5.60314C10.5458 5.29712 11.7209 4.93351 13.8866 4.83057C16.2302 4.71967 16.9322 4.69592 22.8643 4.6844C28.7978 4.67286 29.5006 4.69376 31.8449 4.79673C34.0099 4.89103 35.1878 5.24961 35.9705 5.55273C37.0095 5.95449 37.7503 6.4333 38.5294 7.2102C39.3084 7.98709 39.7916 8.72438 40.1969 9.76335C40.5029 10.5446 40.8665 11.7211 40.9688 13.8861C41.0803 16.2298 41.1056 16.9325 41.1163 22.8647C41.1279 28.7983 41.1063 29.501 41.0033 31.8439C40.909 34.0104 40.5497 35.1876 40.2473 35.9725C39.8456 37.01 39.3653 37.7509 38.5891 38.5307C37.813 39.3076 37.0743 39.7921 36.0367 40.1975C35.2548 40.5028 34.0784 40.8671 31.914 40.9701C29.5704 41.0802 28.8684 41.1054 22.9342 41.1162C17.0021 41.1277 16.3001 41.1054 13.9558 41.0039ZM32.0717 11.0212C32.0746 12.4929 33.2712 13.6845 34.7429 13.6817C36.2153 13.6788 37.4069 12.4828 37.4048 11.0111C37.4019 9.53943 36.2052 8.34711 34.7328 8.34999C33.2605 8.35286 32.0688 9.54951 32.0717 11.0212ZM11.4898 22.9215C11.502 29.2238 16.6205 34.3215 22.9212 34.3092C29.2227 34.297 34.3231 29.1799 34.3109 22.8776C34.2987 16.5775 29.1795 11.477 22.8773 11.4892C16.5765 11.5015 11.4775 16.6207 11.4898 22.9215ZM15.4922 22.9136C15.485 18.8232 18.7956 15.5004 22.8852 15.4932C26.9756 15.4853 30.2991 18.7944 30.307 22.8856C30.3149 26.9767 27.0043 30.2988 22.9133 30.3067C18.8237 30.3146 15.5001 27.0047 15.4922 22.9136Z" fill="#000008"/>
</mask>
<g mask="url(#mask0_8490_21978)">
<rect x="-1.18359" y="-1.18359" width="48.3889" height="48.3889" fill="url(#paint0_radial_8490_21978)"/>
<g filter="url(#filter0_f_8490_21978)">
<ellipse cx="7.87256" cy="-3.02429" rx="27.9167" ry="19.5417" transform="rotate(-14.9317 7.87256 -3.02429)" fill="#7334FF"/>
</g>
<g filter="url(#filter1_f_8490_21978)">
<circle cx="45.6548" cy="-0.872541" r="26.3657" fill="#B202F5"/>
</g>
<g filter="url(#filter2_f_8490_21978)">
<circle cx="8.12326" cy="42.2424" r="14.8889" fill="#FFB401"/>
</g>
</g>
<defs>
<filter id="filter0_f_8490_21978" x="-56.4223" y="-60.0844" width="128.591" height="114.122" filterUnits="userSpaceOnUse" color-interpolation-filters="sRGB">
<feFlood flood-opacity="0" result="BackgroundImageFix"/>
<feBlend mode="normal" in="SourceGraphic" in2="BackgroundImageFix" result="shape"/>
<feGaussianBlur stdDeviation="18.425" result="effect1_foregroundBlur_8490_21978"/>
</filter>
<filter id="filter1_f_8490_21978" x="-25.3776" y="-71.9049" width="142.066" height="142.066" filterUnits="userSpaceOnUse" color-interpolation-filters="sRGB">
<feFlood flood-opacity="0" result="BackgroundImageFix"/>
<feBlend mode="normal" in="SourceGraphic" in2="BackgroundImageFix" result="shape"/>
<feGaussianBlur stdDeviation="22.3333" result="effect1_foregroundBlur_8490_21978"/>
</filter>
<filter id="filter2_f_8490_21978" x="-42.499" y="-8.37982" width="101.244" height="101.244" filterUnits="userSpaceOnUse" color-interpolation-filters="sRGB">
<feFlood flood-opacity="0" result="BackgroundImageFix"/>
<feBlend mode="normal" in="SourceGraphic" in2="BackgroundImageFix" result="shape"/>
<feGaussianBlur stdDeviation="17.8667" result="effect1_foregroundBlur_8490_21978"/>
</filter>
<radialGradient id="paint0_radial_8490_21978" cx="0" cy="0" r="1" gradientUnits="userSpaceOnUse" gradientTransform="translate(18.0479 45.034) rotate(-61.8868) scale(25.6724)">
<stop stop-color="#FFD502"/>
<stop offset="0.869374" stop-color="#FF1154"/>
</radialGradient>
</defs>
</svg>
