<svg width="89" height="24" viewBox="0 0 89 24" fill="none" xmlns="http://www.w3.org/2000/svg">
<g clip-path="url(#clip0_2180_35885)">
<path d="M20.913 16.4759L20.9005 16.4364L28.7898 9.21397V5.73404H16.1326V9.21397H23.6928L23.7053 9.24724L15.8929 16.4759V19.9558H28.917V16.4759H20.913ZM36.6874 5.40251C35.2275 5.40251 34.0377 5.62272 33.1179 6.06314C32.2612 6.44693 31.5395 7.07927 31.0466 7.87815C30.5748 8.68217 30.2787 9.57698 30.1776 10.5037L34.018 11.0435C34.1571 10.2253 34.435 9.64532 34.8516 9.30356C35.277 8.98288 35.7921 8.8036 36.3247 8.79093L36.502 8.79301C37.2815 8.79301 37.8469 9.00138 38.1981 9.41812C38.5464 9.83491 38.7235 10.412 38.7235 11.1726V11.552H35.0306C33.1511 11.552 31.8008 11.9687 30.9797 12.8022C30.1586 13.6357 29.7488 14.7359 29.7503 16.1029C29.7503 17.5032 30.1601 18.5452 30.9797 19.2288C31.7994 19.9122 32.8302 20.2519 34.0721 20.2478C35.6129 20.2478 36.7979 19.7178 37.6271 18.6578C38.1168 18.0064 38.4666 17.2608 38.6544 16.4677H38.7941L39.3233 19.9477H42.8033V11.1352C42.8033 9.31379 42.3233 7.90304 41.3635 6.90297C40.4034 5.90266 38.8446 5.40251 36.6872 5.40251M37.9043 16.2655C37.352 16.7261 36.6288 16.9552 35.7287 16.9552C34.987 16.9552 34.4716 16.8254 34.1827 16.5657C34.0419 16.4427 33.9298 16.2903 33.8545 16.1192C33.7792 15.9482 33.7425 15.7626 33.747 15.5757C33.7387 15.3995 33.7664 15.2235 33.8284 15.0584C33.8904 14.8932 33.9853 14.7424 34.1074 14.6151C34.3402 14.3969 34.6431 14.2689 34.9618 14.2541L38.7294 14.2547V14.4943C38.7368 14.833 38.6662 15.1689 38.5231 15.476C38.3801 15.7831 38.1684 16.0532 37.9043 16.2655ZM63.8459 5.73387H59.7346V19.9581H63.8459V5.73387ZM88.1203 5.73387C86.9588 5.73387 86.0433 6.14367 85.3736 6.96328C84.8932 7.55239 84.528 8.42278 84.2778 9.57444H84.1569L83.6191 5.73404H80.108V19.956H84.2196V12.6625C84.2196 11.743 84.4349 11.038 84.8655 10.5475C85.2962 10.0571 86.0907 9.81186 87.2491 9.81186H88.81V5.73404L88.1203 5.73387ZM76.0277 6.19867C75.068 5.62769 73.8573 5.34289 72.3958 5.34428C70.0952 5.34428 68.2948 5.99925 66.9946 7.30919C65.6942 8.61936 65.044 10.4254 65.0441 12.7272C65.0108 14.1189 65.3146 15.498 65.9297 16.7469C66.4926 17.8598 67.3691 18.7834 68.4511 19.4037C69.54 20.0331 70.8355 20.3485 72.3376 20.3499C73.6363 20.3499 74.7212 20.1499 75.5922 19.7498C76.4111 19.3904 77.1243 18.8271 77.6637 18.1138C78.177 17.4135 78.5583 16.6255 78.7888 15.7884L75.2465 14.7964C75.0972 15.3407 74.8101 15.8374 74.4129 16.2385C74.0126 16.6386 73.3423 16.8386 72.4021 16.8386C71.2837 16.8386 70.4501 16.5184 69.9013 15.878C69.5032 15.4153 69.2531 14.7548 69.1429 13.8983H78.843C78.8829 13.4982 78.9037 13.1627 78.9037 12.8918V12.0062C78.9269 10.8165 78.6812 9.63689 78.1848 8.55541C77.7199 7.57024 76.968 6.74865 76.0277 6.19849M72.2773 8.73444C73.9442 8.73444 74.8895 9.55474 75.113 11.1953H69.2159C69.3096 10.648 69.5365 10.1321 69.8765 9.69298C70.4171 9.05256 71.2174 8.73305 72.2773 8.73444ZM61.8351 0.00134668C61.5258 -0.00922273 61.2175 0.0425105 60.9286 0.15347C60.6397 0.26443 60.376 0.432351 60.1533 0.647247C59.7552 1.04102 59.5197 1.57014 59.4937 2.12951L59.4929 2.31425C59.4817 2.62474 59.5347 2.93419 59.6485 3.22328C59.7623 3.51237 59.9345 3.77488 60.1544 3.99442C60.553 4.39288 61.0861 4.628 61.6491 4.65367L61.8351 4.65453C62.1436 4.6662 62.4512 4.61349 62.7382 4.49975C63.0252 4.38601 63.2854 4.21374 63.5022 3.9939C63.8926 3.59143 64.1215 3.05964 64.1455 2.49951L64.1462 2.31425C64.1605 2.0072 64.1105 1.70057 63.9995 1.41394C63.8883 1.12734 63.7188 0.866959 63.5017 0.649327C63.2843 0.431959 63.0241 0.262263 62.7375 0.151057C62.4509 0.0398501 62.1442 -0.0104282 61.8371 0.00342632L61.8351 0.00134668ZM53.3415 5.34428C51.9412 5.34428 50.8159 5.78389 49.9657 6.66312C49.3363 7.31474 48.8744 8.28726 48.58 9.58068H48.4488L47.911 5.74028H44.3999V24.0446H48.511V16.5052H48.6611C48.7865 17.0079 48.9624 17.4966 49.1862 17.9639C49.5342 18.725 50.1045 19.3629 50.8222 19.7934C51.5662 20.1998 52.4045 20.4019 53.2519 20.3792C54.973 20.3792 56.2837 19.7089 57.1838 18.3682C58.0842 17.0275 58.5343 15.1569 58.5343 12.7565C58.5342 10.4378 58.0988 8.62271 57.228 7.31127C56.3568 5.99994 55.0613 5.34428 53.3415 5.34428ZM53.7583 15.6508C53.3108 16.2992 52.6274 16.6449 51.7081 16.688L51.5076 16.6927C51.0866 16.7122 50.6671 16.6311 50.2837 16.4561C49.9003 16.281 49.5642 16.0172 49.3032 15.6863C48.7709 15.0181 48.5055 14.1033 48.507 12.9419V12.671C48.507 11.4914 48.7724 10.5884 49.303 9.96194C49.8337 9.33539 50.5685 9.02559 51.5074 9.03252C52.5468 9.03252 53.3019 9.36249 53.7728 10.0224C54.2439 10.6824 54.4793 11.6027 54.4792 12.7835C54.4822 14.0046 54.2432 14.9604 53.7623 15.6508H53.7583Z" fill="#201515"/>
<path d="M14.3029 16.4761H0.0787354V19.9602H14.3029V16.4761Z" fill="#FF4F00"/>
</g>
<defs>
<clipPath id="clip0_2180_35885">
<rect width="88.8889" height="24" fill="white"/>
</clipPath>
</defs>
</svg>
