<svg width="50" height="50" viewBox="0 0 50 50" fill="none" xmlns="http://www.w3.org/2000/svg">
<g clip-path="url(#clip0_8381_7709)">
<path d="M50 25.5978C50 23.913 49.8333 22.1739 49.5556 20.5435H25.5V30.163H39.2778C38.7222 33.2608 36.8889 35.9782 34.1667 37.7174L42.3889 43.9674C47.2222 39.5652 50 33.1522 50 25.5978Z" fill="#4280EF"/>
<path d="M25.4999 49.9456C32.3888 49.9456 38.1666 47.7173 42.3888 43.913L34.1666 37.7174C31.8888 39.2391 28.9444 40.1087 25.4999 40.1087C18.8333 40.1087 13.2222 35.7065 11.1666 29.8369L2.72217 36.1956C7.0555 44.6195 15.8333 49.9456 25.4999 49.9456Z" fill="#34A353"/>
<path d="M11.1667 29.7825C10.1111 26.6846 10.1111 23.3151 11.1667 20.2172L2.72225 13.8042C-0.888862 20.8694 -0.888862 29.1846 2.72225 36.1955L11.1667 29.7825Z" fill="#F6B704"/>
<path d="M25.4999 9.94548C29.1111 9.89113 32.6666 11.2498 35.2777 13.6955L42.5555 6.52157C37.9444 2.28243 31.8333 -0.000176638 25.4999 0.0541712C15.8333 0.0541712 7.0555 5.38026 2.72217 13.8042L11.1666 20.2172C13.2222 14.2933 18.8333 9.94548 25.4999 9.94548Z" fill="#E54335"/>
</g>
<defs>
<clipPath id="clip0_8381_7709">
<rect width="50" height="50" fill="white"/>
</clipPath>
</defs>
</svg>
